<?xml version="1.0" encoding="UTF-8"?>
<svg id="Layer_1" data-name="Layer 1" xmlns="http://www.w3.org/2000/svg" viewBox="0 0 245.72 60.22">
  <defs>
    <style>
      .cls-1 {
        fill: #ffba00;
      }
    </style>
  </defs>
  <path class="cls-1" d="M28.52.36c1.19.29,2.42.36,3.62.66,6.64,1.67,12.31,7.34,13.98,13.98.28,1.13.36,2.31.66,3.43v23.4c-.31,1.12-.38,2.3-.66,3.43-1.67,6.64-7.34,12.31-13.98,13.98-1.19.3-2.43.38-3.62.66h-3.04c-1.19-.29-2.42-.36-3.62-.66-6.64-1.67-12.31-7.34-13.98-13.98-.28-1.13-.36-2.31-.66-3.43v-23.4C7.22,8.83,15.95,1.14,25.48.36h3.04ZM45.83,25.66v-7.7c0-1.58-1.41-5.3-2.18-6.76C36.62-2,17.38-1.99,10.35,11.2c-.78,1.46-2.18,5.18-2.18,6.76v7.7h18.26v-13.13c-3.83-.24-5.49-3.76-5.33-7.23,2.36-.07,4.61,1.23,5.14,3.61.31.05.18-.26.19-.47.02-.43-.11-1.33.09-1.63.27-.39.86-.09.86.1v8.27l1.53-2.75c1.7-2.16,4.07-3.23,6.84-3.14.22,5.48-2.38,11.03-8.37,11.6v4.76h18.45ZM26.05,11.58c-.29-2.34-1.27-5.11-3.99-5.32-.03,2.45,1.35,5.06,3.99,5.32ZM34.8,10.25c-5.06.17-7.11,5.34-7.42,9.7,4.99-.24,7.54-5.16,7.42-9.7ZM25.67,26.61H8.17v6.28s.4-.02.67.18c1.02.74,1.79,2,3.32,2.1l1.33-2.16c-.56-.94-1.84-.61-2.64-.98-1.12-.53-.85-2.13-.11-1.99.41.08.2.93.32,1.11.2.33,2.85.02,3.32,1.55.31,1-1.14,1.8-1.45,2.66,1.63.11,3.42-.28,4.75-1.23-1.2-.75-.92-1.68-1.27-2.72s-.9-1.9-1.79-2.59c-.35-.27-1.96-.82-1.13-1.35,1.03-.66,3.23,2.19,3.58,3.09.36.95.32,3.09,1.66,3.02.32-.02,3.09-2.1,2.75-2.4-1.36,0-2.33-.86-2.09-2.28-.64.09-1.54-.05-.96-.86.32-.22,1.33.08,1.55.37.26.36.1.76.21,1.12.21.68,1.94,1.22,2.54.72l2.94-3.62ZM45.83,26.61h-17.12l2.94,3.62c.6.51,2.33-.04,2.54-.72.11-.36-.05-.76.21-1.12.21-.29,1.23-.59,1.55-.37v.77s-.96.09-.96.09c.03.58.05,1.17-.38,1.62l-1.72.94c2.3,2.16,5.27,4.11,8.56,3.9-.31-.87-1.75-1.66-1.45-2.66.47-1.52,3.12-1.22,3.32-1.55.11-.18-.09-1.03.32-1.11.74-.15,1.01,1.46-.11,1.99-.8.38-2.09.04-2.64.98l1.33,2.16c1.5-.26,2.62-1.31,3.61-2.37v-6.18ZM8.74,45.25l2-3.23c.35-.73-.17-1.15-.29-1.81l.45-.27c1.74.8.57,2.53-.03,3.72-.69,1.36-2.04,2.32.57,2.98,1.44.36,2.63-.02,3.5,1.64,3.34-1.82,5.56-5.86,7.09-9.24,1.49-3.3,2.58-6.84,3.45-10.34l-4.91,4.88c.45,1.25,1.61,2.92.81,4.24s-2.74.28-3.17,1.2c-.94,2.02,1.52,3.54.14,5.09-.63.13-.42-1.06-.51-1.38-.43-1.41-1.09-2.25-.53-3.94-4.35-.37-1,3.52-1.81,5.32-.21.45-1.54,1.19-2,.87-1-.71,1.03-.85,1.18-1.33.43-1.31-1.53-3.3-.05-4.97,2.01-2.26,8.53,1.39,5.14-4.65-1.71,1.17-3.88,2.22-5.99,2.3-.64.02-1.27-.29-1.81-.13-.66.19-1.61.94-1.15,1.7l-.46.32c-1.33-.65-.28-1.73.48-2.39l-2.66-2c.07,3.82-.31,7.67.57,11.41ZM45.83,42.3c.25-2.56-.18-5.48,0-8.08-3.39,3.11-7.76,2.32-11.22-.19-.33.76-1.51,2.82-.69,3.44.77.59,3.68.15,4.91.6,3.12,1.14.04,5.21,1.03,5.87,2.5.39.7,1.96-.7.47-1.25-1.33.92-3.79,0-5.13-.7-1.02-4.97-.11-5.99-1.24-1.11-1.22.17-3.2.65-4.46l-4.92-4.78c1.43,5.15,3.16,10.86,6.2,15.29.53.77,3.48,4.4,4.34,4.19.88-1.65,2.06-1.28,3.5-1.64,3.32-.84.08-2.92-.3-4.76-.17-.83-.03-1.64.84-1.93.93.21.14.78.07,1.23-.21,1.2,1.29,2.36,1.52,3.5.42-.37.7-1.81.76-2.38ZM27.38,30.8v27.49c0,.36-.95.36-.95,0v-22.54l-1.51,7.54c.34.98,1.58,4.43.57,5.12s-.58-1.41-.6-1.89c0-.17-.18-1.72-.55-1.26.08,1.57-1.46,3.9-1.52,5.25-.04.78,1.13.91,1.7,1.32,1.33.95,1.66,3.46.31,4.28-.09.05-1.27.49-1.39.52-.72.16-.8-.73-.44-1.21l1.44-.07c1.02-2.23-.29-2.64-1.9-3.62-.29,0-1.92,4.56-2.4,5.2-.43.57-.99.33-.9-.31.08-.58,1.01-1.77,1.22-2.41l-.09-.3c-.59-.4-1.28-1-2.02-1.05-1.22-.08-1.66.97-3.3.46-.99-.31-1.47-1.6-.32-1.96l.6,1.12c1.98.04,2.15-1.04,4.3-.11.43.19,1.03.97,1.38.51.38-.51,1.22-3.24,1.48-4.03,1.92-5.89,2.94-12.06,3.56-18.22l-3.04,8.48c.09,1.46,1.11,3.24.19,4.55-.81.52-.55-1.81-.6-2.27-.02-.19-.08-.9-.36-.88-.05,1.06-2.36,3.59-2.01,4.37s1.53,1.06,1.16,2.48c-.32,1.23-1.28,1.18-2.08,1.73-.19.13-.99,1.41-1.25.43-.43-1.61,4.68-1.61,1.42-4.07-2.09,2.58-5.07,5.19-8.66,4.37,4.79,8.27,15.23,11.28,23.97,7.6-.08-.3-.38-.25-.61-.62-.42-.65-2.05-5.08-2.33-5.08-1.66.95-3.02,1.55-1.81,3.72.39.24,1.12-.4,1.44.07.16.24.16.88-.1,1.07-.18.13-1.63-.35-1.83-.47-.92-.55-1.04-2.54-.54-3.42.59-1.06,2.59-1.34,2.55-2.18-.06-1.35-1.6-3.68-1.52-5.25-.37-.46-.54,1.09-.55,1.26-.02.47.44,2.6-.6,1.89-1.26-.86.57-4.22.57-5.12,0-2.07-1.48-5.57-1.48-7.85l-.6-4.63ZM31.95,40.5c-.37.58.14,3.42-.67,3.23-1.26-1.24.28-3.45.06-4.8-.11-.67-.89-2.06-1.16-2.85-.61-1.8-1.25-3.61-1.66-5.47-.36-.04-.15.4-.13.61.51,5.79,1.71,12.09,3.51,17.61.26.8,1.1,3.52,1.48,4.03.34.46.94-.33,1.38-.51,2.15-.93,2.32.16,4.3.11l.6-1.12c1.15.36.67,1.66-.32,1.96-1.63.51-2.07-.54-3.3-.46-.74.05-1.42.65-2.02,1.05l-.09.3c.48.83.86,1.7,1.24,2.58.08.18-.11.35.28.25,2.46-1.29,4.68-3.01,6.39-5.22.17-.22,1.32-1.65,1.15-1.8-3.45.19-6.06-2.05-8.08-4.56-3.26,2.45,1.85,2.46,1.42,4.07-.26.98-1.07-.3-1.25-.43-.79-.56-1.75-.5-2.08-1.73-.4-1.52,1.32-2.15,1.22-2.91l-2.25-3.95ZM14.06,48.87c-.63-1.86-3.4-.82-4.75-2.28.47,1.61.55,2.35,2.37,2.48.81.06,1.6-.03,2.38-.2ZM40.32,48.87c2,.38,3.92.65,4.18-1.9-1.29,1.06-3.68.1-4.18,1.9Z"/>
  <g>
    <path class="cls-1" d="M85.2,21.1c1.31,0,2.34.28,3.07.85.73.57,1.24,1.28,1.53,2.14.29.86.44,1.71.44,2.55,0,1.64-.47,2.95-1.4,3.92-.93.97-2.15,1.45-3.64,1.45-1.61,0-2.82-.37-3.64-1.1-.82-.73-1.23-1.68-1.23-2.85,0-1.24.26-2.26.79-3.07.53-.8,1.2-1.48,2-2.03-.66,0-1.24.13-1.75.38-.44.18-.86.44-1.26.77-.4.33-.75.7-1.04,1.12-.29.42-.52.89-.68,1.4-.16.51-.25,1.04-.25,1.59v16.43c0,1.75.36,2.94,1.1,3.56.73.62,1.93.93,3.61.93v1.15c-.84-.04-2.09-.08-3.75-.14s-3.37-.08-5.12-.08c-1.64,0-3.3.03-4.98.08-1.68.05-2.94.1-3.78.14v-1.15c1.13,0,1.93-.27,2.38-.82.46-.55.68-1.59.68-3.12v-17.36c0-1.64-.22-2.86-.66-3.64-.44-.79-1.24-1.18-2.41-1.18v-1.15c1.17.11,2.3.16,3.4.16,1.83,0,3.53-.06,5.12-.19,1.59-.13,3.06-.32,4.41-.57v3.94c.47-.95,1.06-1.72,1.75-2.33.69-.6,1.49-1.05,2.38-1.34.89-.29,1.87-.44,2.93-.44Z"/>
    <path class="cls-1" d="M106.17,21.1c2.85,0,5.32.48,7.42,1.45,2.1.97,3.73,2.55,4.9,4.74,1.17,2.19,1.75,5.13,1.75,8.82s-.58,6.63-1.75,8.82c-1.17,2.19-2.8,3.76-4.9,4.71s-4.57,1.42-7.42,1.42-5.28-.47-7.39-1.42c-2.12-.95-3.76-2.52-4.93-4.71-1.17-2.19-1.75-5.13-1.75-8.82s.58-6.63,1.75-8.82c1.17-2.19,2.81-3.77,4.93-4.74,2.12-.97,4.58-1.45,7.39-1.45ZM106.17,22.19c-1.1,0-2.01,1.1-2.74,3.29-.73,2.19-1.09,5.73-1.09,10.62s.36,8.43,1.09,10.6c.73,2.17,1.64,3.26,2.74,3.26s2.01-1.09,2.74-3.26c.73-2.17,1.1-5.7,1.1-10.6s-.37-8.43-1.1-10.62c-.73-2.19-1.64-3.29-2.74-3.29Z"/>
    <path class="cls-1" d="M137.72,21.1c2.85,0,5.32.48,7.42,1.45,2.1.97,3.73,2.55,4.9,4.74,1.17,2.19,1.75,5.13,1.75,8.82s-.58,6.63-1.75,8.82c-1.17,2.19-2.8,3.76-4.9,4.71s-4.57,1.42-7.42,1.42-5.28-.47-7.39-1.42c-2.12-.95-3.76-2.52-4.93-4.71-1.17-2.19-1.75-5.13-1.75-8.82s.58-6.63,1.75-8.82c1.17-2.19,2.81-3.77,4.93-4.74,2.12-.97,4.58-1.45,7.39-1.45ZM137.72,22.19c-1.1,0-2.01,1.1-2.74,3.29-.73,2.19-1.09,5.73-1.09,10.62s.36,8.43,1.09,10.6c.73,2.17,1.64,3.26,2.74,3.26s2.01-1.09,2.74-3.26c.73-2.17,1.1-5.7,1.1-10.6s-.37-8.43-1.1-10.62c-.73-2.19-1.64-3.29-2.74-3.29Z"/>
    <path class="cls-1" d="M167.29,12.99v8.87h5.37v1.1h-5.37v22.73c0,.69.13,1.2.38,1.51.25.31.68.47,1.26.47.4,0,.88-.12,1.42-.36.55-.24,1.06-.65,1.53-1.23l.82.66c-.77,1.32-1.78,2.37-3.04,3.15-1.26.79-2.84,1.18-4.74,1.18-1.21,0-2.29-.16-3.26-.47-.97-.31-1.76-.77-2.38-1.4-.8-.8-1.31-1.8-1.53-2.98-.22-1.19-.33-2.73-.33-4.63v-18.62h-4.16v-1.1h4.16v-6.46c1.94,0,3.7-.19,5.29-.57,1.59-.38,3.11-.99,4.57-1.83Z"/>
    <path class="cls-1" d="M188.44,21.1c3.21,0,5.74.94,7.58,2.82,1.84,1.88,2.77,5.03,2.77,9.45h-17.14l-.11-1.04h9.26c.04-1.79-.04-3.44-.22-4.96-.18-1.51-.47-2.73-.88-3.64-.4-.91-.95-1.37-1.64-1.37-.99,0-1.79.78-2.41,2.33-.62,1.55-1.02,4.21-1.21,7.97l.22.44c-.04.37-.05.73-.05,1.1v1.15c0,2.56.32,4.55.96,5.97.64,1.42,1.44,2.41,2.41,2.96.97.55,1.94.82,2.93.82.51,0,1.12-.07,1.83-.22s1.49-.48,2.33-1.01c.84-.53,1.66-1.34,2.46-2.44l.93.33c-.44,1.46-1.14,2.91-2.11,4.35-.97,1.44-2.22,2.63-3.75,3.56s-3.4,1.4-5.59,1.4c-2.34,0-4.46-.47-6.38-1.42s-3.44-2.52-4.57-4.71c-1.13-2.19-1.7-5.13-1.7-8.82s.62-6.36,1.86-8.57c1.24-2.21,2.93-3.83,5.07-4.88,2.14-1.04,4.52-1.56,7.15-1.56Z"/>
    <path class="cls-1" d="M214.07,21.1c1.61,0,2.96.19,4.05.58s2.06,1,2.9,1.84l-.6.6c-.47-.4-1-.7-1.59-.9-.58-.2-1.13-.3-1.64-.3-1.68,0-2.94,1.08-3.78,3.23-.84,2.15-1.26,5.46-1.26,9.91,0,3.21.16,5.71.49,7.48.33,1.77.78,3,1.34,3.67.57.68,1.18,1.01,1.83,1.01,1.02,0,1.94-.37,2.74-1.12.8-.75,1.2-1.69,1.2-2.82v2.68c-.73,1.39-1.62,2.42-2.68,3.09-1.06.67-2.39,1.01-4,1.01-2.08,0-3.97-.52-5.67-1.56-1.7-1.04-3.04-2.67-4.03-4.9-.99-2.23-1.48-5.13-1.48-8.71,0-3.32.5-6.07,1.51-8.24,1-2.17,2.42-3.81,4.25-4.9,1.83-1.1,3.96-1.64,6.41-1.64ZM229.62,7.46v36.81c0,1.64.23,2.86.68,3.64.46.79,1.25,1.18,2.38,1.18v1.15c-1.13-.11-2.26-.16-3.4-.16-1.83,0-3.52.05-5.09.16s-3.05.31-4.44.6V14.03c0-1.64-.22-2.86-.66-3.64-.44-.78-1.24-1.18-2.41-1.18v-1.15c1.17.11,2.3.16,3.4.16,1.83,0,3.53-.06,5.12-.19,1.59-.13,3.06-.32,4.41-.57Z"/>
  </g>
</svg>