<?xml version="1.0" encoding="UTF-8"?>
<svg id="Layer_1" data-name="Layer 1" xmlns="http://www.w3.org/2000/svg" viewBox="0 0 245.72 56.07">
  <defs>
    <style>
      .cls-1 {
        fill: #ffba00;
      }

      .cls-2 {
        isolation: isolate;
      }
    </style>
  </defs>
  <g id="Group_21" data-name="Group 21">
    <path class="cls-1" d="M23.65,3.76C3.74,5.53-6.59,29.4,5.61,45.41c11.23,14.74,33.74,13.48,43.15-2.46C59.73,24.36,44.8,1.88,23.65,3.76ZM48.09,18.55c.43.5,2.15,5,1.82,5.47-4.27.99-6.75,6.36-11.34,5.78-1.06-.14-2.16-.91-3.28-.95-.11-.56.05-.38.31-.54,4.53-2.58,4.53-5.68,8.02-8.41.86-.67,3.62-2.35,4.47-1.35ZM12.66,9.44c.76-.51,2.19-1.35,3.63-2.03,1.61-.87,3.84-1.53,6.41-1.85.01-.08,7.29-.07,7.29-.03,2.69.32,5.02,1,6.68,1.9,4.16,1.89,8.08,5.71,10.43,9.32-2.53.32-4.63,1.88-6.27,3.76-2.21,2.53-4.52,8.64-9.07,6.42-.17-.08-.37-.22-.6-.41.27.01.51.02.71.03v-.7c-.73,0-1.31-.1-1.74-.29-.31-.32-.63-.67-.93-1.03-.13-.38-.2-.85-.2-1.42v-10.04c0-.33.05-.66.15-.97.1-.31.24-.6.42-.85.18-.26.39-.49.63-.69.24-.2.5-.36.77-.47.31-.16.67-.23,1.07-.23-.49.33-.9.75-1.22,1.24-.32.49-.48,1.12-.48,1.87,0,.71.25,1.29.75,1.74.5.45,1.24.67,2.22.67.91,0,1.65-.3,2.22-.89.57-.59.85-1.39.85-2.39,0-.51-.09-1.03-.27-1.56-.18-.52-.49-.96-.93-1.3-.45-.35-1.07-.52-1.87-.52-.65,0-1.24.09-1.79.27-.55.18-1.03.45-1.45.82-.42.37-.78.84-1.07,1.42v-2.41c-.82.16-1.72.27-2.69.35-.97.08-2.01.12-3.12.12-.67,0-1.36-.03-2.07-.1v.7c.71,0,1.2.24,1.47.72.27.48.4,1.22.4,2.23v10.61c0,.94-.14,1.57-.42,1.91-.28.33-.76.5-1.45.5v.7c.06,0,.12,0,.19,0-.75.52-1.48.86-2.06.84-4.11-.12-5.67-5.44-8.19-7.88-1.53-1.48-3.4-2.43-5.47-2.87,2.03-2.8,4.18-5.25,7.06-7.19ZM22.96,28.49c.04-.51.52-1.26,1.13-2.05.8-.02,1.59-.03,2.38-.03s1.55.01,2.31.03c.77.9,1.32,1.85.77,3.31-.19.49-3.22,4.35-3.43,4.18-.54-1.88-3.31-3.27-3.15-5.44ZM4.75,18.44c1.11-1,4.54,1.43,5.43,2.3,2.48,2.44,3.57,6.9,7.48,7.62-.05.36-.83.54-1.15.66-6.86,2.61-7.65-4.66-13.57-5.76-.32-.37,1.34-4.41,1.8-4.83ZM2.46,35.14c-.51-3.46-.82-6.96,0-10.4,3.07.66,4.91,3.39,7.25,5.19.31.23.92.34.95.38.4.4-.09.41-.35.49-3.67,1.09-4.28,1.8-7.13,3.99-.24.19-.31.47-.72.36ZM5.56,42.56c-.5-.82-2.26-4.19-2.33-4.94-.08-.77,1.41-2.21,2.02-2.71,3.28-2.73,8.2-3.2,12.18-4.36-4.48,4.08-9.04,8.55-9.53,15-.92-.87-1.68-1.9-2.34-2.98ZM9.46,45.42c.28-3.79,2.2-6.76,4.68-9.46,1.3-1.42,2.84-2.64,4.24-3.97-.72,2.68.82,5.27.73,7.85-.13,3.95-3.07,8.02-6.36,10.02-2.06-1.43-3.51-1.63-3.3-4.44ZM14.29,51.1c-.07-.34-.05-.31.15-.5,2.81-2.67,5.69-5.05,6.12-9.3.42-4.2-2.35-8.38.97-11.97.61,2.92,3.1,4.07,3.99,7.01,1.43,4.73.29,9.8-3.03,13.43-.47.51-2.91,2.74-3.39,2.91-1.31.46-3.51-1.28-4.81-1.57ZM20.81,53.41c1.6-1.29,3.16-2.7,4.22-4.48.98,1.78,1.8,3.63,3.26,5.08-2.42.22-5.14.19-7.48-.6ZM30.59,53.77c-1.1-.15-3.21-3.57-3.63-4.61-1.17-2.93.06-3.28.54-5.98.1-.58.31-2.08.31-2.61.02-2.43-1.42-4.23.13-6.38,1.36-1.89,2.23-1.92,3.24-4.5.11-.29-.18-.45.48-.36.62,1.46,1.45,3.09,1.47,4.72.02,1.59-.84,3.25-.98,4.84-.46,5.05,1.92,8.93,5.07,12.57-.13.55-5.84,2.42-6.63,2.31ZM43.2,47.31c-.14.48-3.75,3.24-4.22,3.28-3.71-2.93-5.57-7.43-5.14-12.18.21-2.36,1.48-4.7.24-7.14l2.42,1.81c2.56,2.35,5.21,5.93,6.15,9.32.32,1.16.86,3.83.55,4.91ZM49.37,37.98c-.52,2.42-3.05,5.35-4.19,7.56l-.48-.12c-.12-6.01-4.19-10.87-8.45-14.63,3.5,1.03,8.35,1.7,11.22,4.11.71.6,2.09,2.17,1.9,3.09ZM49.89,35.14c-1.4-1.61-3.02-2.65-4.96-3.5-.28-.12-2.67-.75-2.41-1.09,2.97-1.06,4.64-4.48,7.96-4.84.35,2.97.41,5.9-.23,8.84-.07.34.21.7-.36.59Z"/>
    <g class="cls-2">
      <path class="cls-1" d="M86.16,15.13c1.42,0,2.52.31,3.3.92.79.61,1.34,1.38,1.65,2.31.31.93.47,1.84.47,2.75,0,1.77-.5,3.19-1.5,4.23-1,1.05-2.31,1.57-3.92,1.57-1.73,0-3.04-.39-3.92-1.18-.88-.79-1.33-1.81-1.33-3.08,0-1.34.29-2.45.86-3.31.57-.87,1.29-1.6,2.15-2.19-.71,0-1.34.14-1.89.41-.47.2-.92.47-1.36.83-.43.35-.81.76-1.12,1.21-.32.45-.56.96-.74,1.51-.18.55-.27,1.12-.27,1.72v17.75c0,1.89.39,3.18,1.18,3.85.79.67,2.08,1.01,3.89,1.01v1.24c-.91-.04-2.25-.09-4.04-.15-1.79-.06-3.63-.09-5.52-.09-1.77,0-3.56.03-5.37.09-1.81.06-3.17.11-4.07.15v-1.24c1.22,0,2.07-.3,2.57-.89.49-.59.74-1.72.74-3.37v-18.75c0-1.77-.24-3.09-.71-3.93-.47-.85-1.34-1.27-2.6-1.27v-1.24c1.26.12,2.48.18,3.66.18,1.97,0,3.81-.07,5.52-.21,1.71-.14,3.29-.34,4.75-.62v4.26c.51-1.03,1.14-1.86,1.89-2.51.75-.65,1.6-1.13,2.57-1.45.96-.32,2.02-.47,3.16-.47Z"/>
      <path class="cls-1" d="M108.76,15.13c3.07,0,5.73.52,7.99,1.57,2.26,1.05,4.02,2.75,5.28,5.12,1.26,2.37,1.89,5.54,1.89,9.53s-.63,7.16-1.89,9.53c-1.26,2.37-3.02,4.06-5.28,5.09-2.26,1.03-4.93,1.54-7.99,1.54s-5.68-.51-7.96-1.54c-2.28-1.03-4.05-2.72-5.31-5.09-1.26-2.37-1.89-5.54-1.89-9.53s.63-7.16,1.89-9.53c1.26-2.37,3.03-4.07,5.31-5.12,2.28-1.04,4.94-1.57,7.96-1.57ZM108.76,16.32c-1.18,0-2.16,1.18-2.95,3.55-.79,2.37-1.18,6.19-1.18,11.48s.39,9.1,1.18,11.45c.79,2.35,1.77,3.52,2.95,3.52s2.16-1.17,2.95-3.52c.79-2.35,1.18-6.16,1.18-11.45s-.39-9.11-1.18-11.48c-.79-2.37-1.77-3.55-2.95-3.55Z"/>
      <path class="cls-1" d="M142.74,15.13c3.07,0,5.73.52,7.99,1.57,2.26,1.05,4.02,2.75,5.28,5.12,1.26,2.37,1.89,5.54,1.89,9.53s-.63,7.16-1.89,9.53c-1.26,2.37-3.02,4.06-5.28,5.09-2.26,1.03-4.93,1.54-7.99,1.54s-5.68-.51-7.96-1.54c-2.28-1.03-4.05-2.72-5.31-5.09-1.26-2.37-1.89-5.54-1.89-9.53s.63-7.16,1.89-9.53c1.26-2.37,3.03-4.07,5.31-5.12,2.28-1.04,4.94-1.57,7.96-1.57ZM142.74,16.32c-1.18,0-2.16,1.18-2.95,3.55-.79,2.37-1.18,6.19-1.18,11.48s.39,9.1,1.18,11.45c.79,2.35,1.77,3.52,2.95,3.52s2.16-1.17,2.95-3.52c.79-2.35,1.18-6.16,1.18-11.45s-.39-9.11-1.18-11.48c-.79-2.37-1.77-3.55-2.95-3.55Z"/>
      <path class="cls-1" d="M174.6,6.38v9.58h5.78v1.18h-5.78v24.55c0,.75.14,1.29.41,1.63.27.34.73.5,1.36.5.43,0,.94-.13,1.53-.38.59-.26,1.14-.7,1.65-1.33l.88.71c-.83,1.42-1.92,2.55-3.27,3.4-1.36.85-3.06,1.27-5.1,1.27-1.3,0-2.47-.17-3.51-.5-1.04-.33-1.9-.84-2.57-1.51-.87-.87-1.42-1.94-1.65-3.22-.24-1.28-.35-2.95-.35-5v-20.12h-4.48v-1.18h4.48v-6.98c2.08,0,3.98-.21,5.69-.62s3.35-1.07,4.93-1.98Z"/>
      <path class="cls-1" d="M197.37,15.13c3.46,0,6.18,1.02,8.17,3.05,1.99,2.03,2.98,5.43,2.98,10.21h-18.47l-.12-1.12h9.97c.04-1.93-.04-3.72-.24-5.35-.2-1.64-.51-2.95-.94-3.93-.43-.99-1.02-1.48-1.77-1.48-1.06,0-1.93.84-2.6,2.51-.67,1.68-1.1,4.55-1.3,8.61l.24.47c-.04.39-.06.79-.06,1.18v1.24c0,2.76.34,4.91,1.03,6.45.69,1.54,1.55,2.6,2.6,3.19,1.04.59,2.09.89,3.16.89.55,0,1.21-.08,1.98-.24.77-.16,1.6-.52,2.51-1.09.9-.57,1.79-1.45,2.65-2.63l1,.35c-.47,1.58-1.23,3.15-2.27,4.7-1.04,1.56-2.39,2.84-4.04,3.85-1.65,1.01-3.66,1.51-6.02,1.51-2.52,0-4.81-.51-6.87-1.54-2.06-1.03-3.71-2.72-4.93-5.09-1.22-2.37-1.83-5.54-1.83-9.53s.67-6.87,2.01-9.26c1.34-2.39,3.16-4.14,5.46-5.27,2.3-1.12,4.87-1.69,7.7-1.69Z"/>
      <path class="cls-1" d="M224.98,15.13c1.73,0,3.19.21,4.37.62s2.22,1.08,3.13,1.98l-.65.65c-.51-.43-1.08-.76-1.71-.98-.63-.22-1.22-.33-1.77-.33-1.81,0-3.17,1.16-4.07,3.49-.91,2.33-1.36,5.9-1.36,10.71,0,3.47.18,6.16.53,8.08.35,1.91.84,3.23,1.45,3.96.61.73,1.27,1.09,1.98,1.09,1.1,0,2.08-.4,2.95-1.21.86-.81,1.3-1.82,1.3-3.05v2.9c-.79,1.5-1.75,2.61-2.89,3.34-1.14.73-2.58,1.09-4.31,1.09-2.24,0-4.28-.56-6.11-1.69-1.83-1.12-3.27-2.89-4.34-5.3-1.06-2.41-1.59-5.54-1.59-9.41,0-3.59.54-6.56,1.62-8.9,1.08-2.35,2.6-4.11,4.57-5.3,1.97-1.18,4.27-1.77,6.9-1.77ZM241.73.4v39.76c0,1.77.25,3.09.74,3.93.49.85,1.35,1.27,2.57,1.27v1.24c-1.22-.12-2.44-.18-3.66-.18-1.97,0-3.8.06-5.49.18-1.69.12-3.28.33-4.78.65V7.5c0-1.77-.24-3.09-.71-3.93-.47-.85-1.34-1.27-2.6-1.27v-1.24c1.26.12,2.48.18,3.66.18,1.97,0,3.81-.07,5.52-.21,1.71-.14,3.29-.34,4.75-.62Z"/>
    </g>
  </g>
</svg>